<?xml version="1.0" encoding="utf-8"?>
<!-- Svg Vector Icons : http://www.onlinewebfonts.com/icon -->
<!DOCTYPE svg PUBLIC "-//W3C//DTD SVG 1.1//EN" "http://www.w3.org/Graphics/SVG/1.1/DTD/svg11.dtd">
<svg version="1.1" xmlns="http://www.w3.org/2000/svg" xmlns:xlink="http://www.w3.org/1999/xlink" x="0px" y="0px" viewBox="0 0 1000 1000" enable-background="new 0 0 1000 1000" xml:space="preserve">
<metadata> Svg Vector Icons : http://www.onlinewebfonts.com/icon </metadata>
<g><g><path id="Skype" d="M949.1,570.9c3.7-23.1,5.6-46.8,5.6-71c0-251.1-203.6-454.7-454.7-454.7c-24.1,0-47.8,2-71,5.6C387.2,25,337.7,10,284.8,10C133,10,10,133,10,284.8c0,53,15,102.3,40.9,144.3c-3.6,23.2-5.6,46.8-5.6,70.9c0,251.1,203.6,454.6,454.6,454.6c24.1,0,47.9-1.9,71-5.5C612.9,975,662.3,990,715.2,990C867,990,990,867,990,715.2C990,662.2,975,612.9,949.1,570.9z M715.9,706.8c-19.2,27.7-47.5,49.3-84.4,64.9c-37,15.6-80.7,23.4-131.2,23.4c-60.5,0-110.6-10.6-150.2-32c-28-15.3-50.8-35.9-68.4-61.5c-17.6-25.6-26.5-50.7-26.5-75.2c0-14.4,5.5-27,16.2-37.2c10.8-10.3,24.8-15.5,41.2-15.5c13.5,0,25.1,4.1,34.5,12.1c9.4,8,17.2,19.7,23.6,35.2c7.7,17.9,16.1,32.8,25,44.8c8.8,11.8,21.3,21.6,37.4,29.3c15.9,7.7,37.2,11.6,63.7,11.6c36.3,0,65.7-7.9,88.2-23.4c22.6-15.6,33.4-34.7,33.4-57.7c0-18.3-5.8-32.9-17.8-44.3c-12.1-11.5-27.7-20.3-47.1-26.4c-19.5-6.2-45.6-12.7-78.4-19.6c-44-9.6-80.8-20.8-110.6-33.6c-29.8-12.9-53.6-30.5-71.2-52.7c-17.6-22.5-26.4-50.4-26.4-83.5c0-31.5,9.3-59.7,27.9-84.3c18.6-24.6,45.5-43.4,80.5-56.6c34.9-13.1,76.1-19.7,123.2-19.7c37.7,0,70.3,4.4,97.9,13c27.5,8.7,50.5,20.3,68.8,34.7c18.2,14.4,31.6,29.7,40.1,45.7c8.5,16,12.8,31.7,12.8,47c0,14.2-5.5,27.1-16.2,38.4c-10.7,11.3-24.5,17.1-40.5,17c-14.5,0-25.8-3.3-33.6-10.4c-7.7-6.8-15.7-17.7-24.4-32.8c-11-21.1-24.2-37.6-39.5-49.4c-14.9-11.6-39.5-17.6-73.7-17.5c-31.7,0-57,6.5-76.1,19.1c-19.2,12.9-28.4,27.8-28.5,45.3c0,11,3.2,20.2,9.5,28.1c6.4,8,15.4,14.9,26.9,20.7c11.5,5.9,23.2,10.5,35,13.8c11.9,3.4,31.7,8.3,59.1,14.7c34.4,7.4,65.7,15.7,93.7,24.7c28,9.1,51.9,20,71.7,33.1c19.9,13,35.5,29.6,46.6,49.6c11.2,20.1,16.8,44.6,16.8,73.4C744.8,647.9,735.1,679.1,715.9,706.8z"/></g><g></g><g></g><g></g><g></g><g></g><g></g><g></g><g></g><g></g><g></g><g></g><g></g><g></g><g></g><g></g></g>
</svg>